<svg width="9" height="12" viewBox="0 0 9 12" fill="none" xmlns="http://www.w3.org/2000/svg">
<rect width="9" height="12" fill="#F5F5F5"/>
<g id="Make diagnosis" clip-path="url(#clip0_104_2)">
<rect width="1440" height="1024" transform="translate(-1300 -250)" fill="#F2F8FD"/>
<path id="BG" d="M-165 -237C-165 -244.18 -159.18 -250 -152 -250H142V774H-152C-159.18 774 -165 768.18 -165 761V-237Z" fill="white"/>
<g id="Medium_User">
<rect x="-141" y="-97" width="263" height="219" rx="15.0145" fill="#F7FBFF"/>
<g id="Location">
<g id="Location Icon">
<path id="Vector" d="M4.75345 0.322556C2.63689 0.322556 0.925049 2.0344 0.925049 4.15096C0.925049 7.02226 4.75345 11.2608 4.75345 11.2608C4.75345 11.2608 8.58185 7.02226 8.58185 4.15096C8.58185 2.0344 6.87001 0.322556 4.75345 0.322556ZM2.01888 4.15096C2.01888 2.64147 3.24397 1.41638 4.75345 1.41638C6.26294 1.41638 7.48802 2.64147 7.48802 4.15096C7.48802 5.72607 5.91291 8.08327 4.75345 9.55447C3.61587 8.09421 2.01888 5.70966 2.01888 4.15096Z" fill="#A3AED0"/>
<path id="Vector_2" d="M4.75376 5.51781C5.50889 5.51781 6.12105 4.90565 6.12105 4.15052C6.12105 3.39539 5.50889 2.78323 4.75376 2.78323C3.99863 2.78323 3.38647 3.39539 3.38647 4.15052C3.38647 4.90565 3.99863 5.51781 4.75376 5.51781Z" fill="#A3AED0"/>
</g>
</g>
</g>
</g>
<defs>
<clipPath id="clip0_104_2">
<rect width="1440" height="1024" fill="white" transform="translate(-1300 -250)"/>
</clipPath>
</defs>
</svg>
