<svg width="207" height="58" viewBox="0 0 207 58" fill="none" xmlns="http://www.w3.org/2000/svg">
<path d="M65 23.04V25.3H59.18V28.88H63.64V31.1H59.18V37H56.38V23.04H65ZM77.4455 25.92V37H74.6255V35.6C74.2655 36.08 73.7921 36.46 73.2055 36.74C72.6321 37.0067 72.0055 37.14 71.3255 37.14C70.4588 37.14 69.6921 36.96 69.0255 36.6C68.3588 36.2267 67.8321 35.6867 67.4455 34.98C67.0721 34.26 66.8855 33.4067 66.8855 32.42V25.92H69.6855V32.02C69.6855 32.9 69.9055 33.58 70.3455 34.06C70.7855 34.5267 71.3855 34.76 72.1455 34.76C72.9188 34.76 73.5255 34.5267 73.9655 34.06C74.4055 33.58 74.6255 32.9 74.6255 32.02V25.92H77.4455ZM86.3481 25.76C87.6681 25.76 88.7348 26.18 89.5481 27.02C90.3615 27.8467 90.7681 29.0067 90.7681 30.5V37H87.9681V30.88C87.9681 30 87.7481 29.3267 87.3081 28.86C86.8681 28.38 86.2681 28.14 85.5081 28.14C84.7348 28.14 84.1215 28.38 83.6681 28.86C83.2281 29.3267 83.0081 30 83.0081 30.88V37H80.2081V25.92H83.0081V27.3C83.3815 26.82 83.8548 26.4467 84.4281 26.18C85.0148 25.9 85.6548 25.76 86.3481 25.76ZM92.7108 31.42C92.7108 30.3 92.9308 29.3067 93.3708 28.44C93.8241 27.5733 94.4374 26.9067 95.2108 26.44C95.9841 25.9733 96.8441 25.74 97.7908 25.74C98.5108 25.74 99.1974 25.9 99.8508 26.22C100.504 26.5267 101.024 26.94 101.411 27.46V22.2H104.251V37H101.411V35.36C101.064 35.9067 100.577 36.3467 99.9508 36.68C99.3241 37.0133 98.5974 37.18 97.7708 37.18C96.8374 37.18 95.9841 36.94 95.2108 36.46C94.4374 35.98 93.8241 35.3067 93.3708 34.44C92.9308 33.56 92.7108 32.5533 92.7108 31.42ZM101.431 31.46C101.431 30.78 101.297 30.2 101.031 29.72C100.764 29.2267 100.404 28.8533 99.9508 28.6C99.4974 28.3333 99.0108 28.2 98.4908 28.2C97.9708 28.2 97.4908 28.3267 97.0508 28.58C96.6108 28.8333 96.2508 29.2067 95.9708 29.7C95.7041 30.18 95.5708 30.7533 95.5708 31.42C95.5708 32.0867 95.7041 32.6733 95.9708 33.18C96.2508 33.6733 96.6108 34.0533 97.0508 34.32C97.5041 34.5867 97.9841 34.72 98.4908 34.72C99.0108 34.72 99.4974 34.5933 99.9508 34.34C100.404 34.0733 100.764 33.7 101.031 33.22C101.297 32.7267 101.431 32.14 101.431 31.46ZM117.445 25.92V37H114.625V35.6C114.265 36.08 113.792 36.46 113.205 36.74C112.632 37.0067 112.005 37.14 111.325 37.14C110.459 37.14 109.692 36.96 109.025 36.6C108.359 36.2267 107.832 35.6867 107.445 34.98C107.072 34.26 106.885 33.4067 106.885 32.42V25.92H109.685V32.02C109.685 32.9 109.905 33.58 110.345 34.06C110.785 34.5267 111.385 34.76 112.145 34.76C112.919 34.76 113.525 34.5267 113.965 34.06C114.405 33.58 114.625 32.9 114.625 32.02V25.92H117.445ZM124.448 37.18C123.541 37.18 122.728 37.02 122.008 36.7C121.288 36.3667 120.715 35.92 120.288 35.36C119.875 34.8 119.648 34.18 119.608 33.5H122.428C122.481 33.9267 122.688 34.28 123.048 34.56C123.421 34.84 123.881 34.98 124.428 34.98C124.961 34.98 125.375 34.8733 125.668 34.66C125.975 34.4467 126.128 34.1733 126.128 33.84C126.128 33.48 125.941 33.2133 125.568 33.04C125.208 32.8533 124.628 32.6533 123.828 32.44C123.001 32.24 122.321 32.0333 121.788 31.82C121.268 31.6067 120.815 31.28 120.428 30.84C120.055 30.4 119.868 29.8067 119.868 29.06C119.868 28.4467 120.041 27.8867 120.388 27.38C120.748 26.8733 121.255 26.4733 121.908 26.18C122.575 25.8867 123.355 25.74 124.248 25.74C125.568 25.74 126.621 26.0733 127.408 26.74C128.195 27.3933 128.628 28.28 128.708 29.4H126.028C125.988 28.96 125.801 28.6133 125.468 28.36C125.148 28.0933 124.715 27.96 124.168 27.96C123.661 27.96 123.268 28.0533 122.988 28.24C122.721 28.4267 122.588 28.6867 122.588 29.02C122.588 29.3933 122.775 29.68 123.148 29.88C123.521 30.0667 124.101 30.26 124.888 30.46C125.688 30.66 126.348 30.8667 126.868 31.08C127.388 31.2933 127.835 31.6267 128.208 32.08C128.595 32.52 128.795 33.1067 128.808 33.84C128.808 34.48 128.628 35.0533 128.268 35.56C127.921 36.0667 127.415 36.4667 126.748 36.76C126.095 37.04 125.328 37.18 124.448 37.18Z" fill="white"/>
<path d="M139.667 34.34H134.107L133.187 37H130.247L135.267 23.02H138.527L143.547 37H140.587L139.667 34.34ZM138.907 32.1L136.887 26.26L134.867 32.1H138.907ZM148.223 23.04V37H145.423V23.04H148.223Z" fill="#FF9839"/>
<path fill-rule="evenodd" clip-rule="evenodd" d="M27.2104 15.963H34.2236C34.2236 15.963 34.4903 23.6676 27.2104 23.6676C25.8576 23.6676 24.6629 23.0214 23.9385 22.0333C23.6493 21.6384 23.0619 21.5883 22.7108 21.9331L21.2069 23.4076V28.3934L19.2057 29.0243V18.5922C18.6083 18.2589 18.2051 17.6387 18.2051 16.926C18.2051 15.8281 19.1596 14.944 20.3153 15.0028C21.3489 15.0548 22.1854 15.8878 22.2075 16.8837C22.2235 17.6137 21.8162 18.2522 21.2069 18.5922V20.2092L24.2216 17.2525V17.2544C24.9551 16.4618 26.0217 15.963 27.2104 15.963ZM16.4645 22.0091C16.7552 21.6128 17.3458 21.5635 17.699 21.9086L18.2051 22.4045V19.1943L16.1798 17.2118V17.2127C15.4422 16.4182 14.3697 15.9175 13.1745 15.9175H6.12244C6.12244 15.9175 6.54703 23.6505 13.1745 23.6505C14.5347 23.6505 15.736 23.0018 16.4645 22.0091ZM17.0844 29.737L17.0734 29.7409C16.2277 30.0161 15.4828 30.3966 14.8579 30.8592C13.5344 29.8529 13.3177 28.694 13.3177 28.045C13.3177 27.1265 13.5334 26.2525 14.5444 25.4161C15.6018 24.517 16.9776 24.4639 17.4806 25.2539C17.9432 25.9801 17.4907 27.141 16.4706 27.848C16.1158 28.0933 15.7398 28.2497 15.38 28.3212C15.505 28.7085 15.885 29.1025 16.4646 29.4347C16.6691 29.5516 16.8355 29.6375 17.0844 29.737ZM22.9961 25.6724C23.4795 24.714 24.8028 24.7807 25.8181 25.8689C26.7907 26.8823 26.9971 27.9412 26.9999 29.0552C26.9999 29.9539 26.7287 31.6588 24.9084 32.9728C24.4928 33.2724 24.1799 33.4538 23.5579 33.7241C24.889 34.5361 25.6592 35.8186 25.6592 37.2825C25.6592 39.4016 24.2002 40.6127 22.5514 41.3323C23.3671 42.0379 23.7972 42.9588 23.7972 43.9078C23.7972 44.5244 23.7333 45.1715 22.9099 45.9251L22.9089 45.9239C22.8605 45.9707 22.8004 46 22.7335 46C22.5785 46 22.4526 45.8479 22.4526 45.6607C22.4526 45.5986 22.4671 45.5413 22.4913 45.491L22.4904 45.4898C23.1133 44.2272 22.4129 43.4304 21.2998 42.8664V44.8287C21.2998 45.4746 20.8657 45.9988 20.331 45.9988C19.7963 45.9988 19.3622 45.4746 19.3622 44.8287V42.8652C18.2036 43.4526 17.6069 44.1313 18.1687 45.4898C18.1929 45.5401 18.2075 45.5975 18.2075 45.6595C18.2075 45.8467 18.0815 45.9988 17.9265 45.9988C17.8597 45.9988 17.7987 45.9696 17.7502 45.9228L17.7493 45.9239C16.8987 45.2031 16.8425 44.4777 16.8425 43.8926C16.8425 42.8734 17.2804 42.0063 18.0951 41.3241C18.486 40.9984 18.7251 40.8704 19.7103 40.3428L19.7107 40.3426L19.7114 40.3422C19.8905 40.2462 20.0943 40.1371 20.3281 40.0112C20.6814 39.8208 21.0009 39.6517 21.2893 39.4991C23.1541 38.5123 23.7188 38.2135 23.7188 37.2801C23.7188 36.8355 23.1937 36.1708 22.192 35.759C21.9582 35.6645 21.7344 35.5752 21.52 35.4896L21.2978 35.4009V36.8928L19.3603 37.9366V35.3997C19.0784 35.5121 18.78 35.6314 18.4632 35.759C17.4615 36.1697 16.9364 36.8355 16.9364 37.2801C16.9364 37.8874 17.1728 38.242 17.9391 38.71C17.2736 39.1044 16.704 39.597 16.2477 40.1645C15.522 39.4671 14.9999 38.5146 14.9999 37.2801C14.9999 35.5471 16.0791 34.0681 17.8926 33.3239C19.1908 32.8032 20.1789 32.4124 20.9462 32.1104C23.184 31.227 23.4466 31.117 23.9726 30.7379C24.5296 30.3353 24.8949 29.8579 25.015 29.3887C24.6691 29.3021 24.3078 29.1125 23.9667 28.8153C22.9864 27.9588 22.5524 26.5523 22.9961 25.6724Z" fill="url(#paint0_linear_118_1242)"/>
<defs>
<linearGradient id="paint0_linear_118_1242" x1="27.7542" y1="2.46048" x2="-4.87163" y2="2.46048" gradientUnits="userSpaceOnUse">
<stop stop-color="#804AF3"/>
<stop offset="0.348958" stop-color="#71DDB1"/>
<stop offset="1" stop-color="#F4FAFF"/>
</linearGradient>
</defs>
</svg>
